<?xml version="1.0" encoding="utf-8"?>
<!-- Generator: Adobe Illustrator 15.0.0, SVG Export Plug-In . SVG Version: 6.00 Build 0)  -->
<!DOCTYPE svg PUBLIC "-//W3C//DTD SVG 1.0//EN" "http://www.w3.org/TR/2001/REC-SVG-20010904/DTD/svg10.dtd">
<svg version="1.0" id="Layer_1" xmlns="http://www.w3.org/2000/svg" xmlns:xlink="http://www.w3.org/1999/xlink" x="0px" y="0px"
	 width="231px" height="64px" viewBox="0 0 231 64" enable-background="new 0 0 231 64" xml:space="preserve">
<path fill-rule="evenodd" clip-rule="evenodd" fill="#FFFFFF" d="M43.43,1.475c6.101,3.81,8.014,13.037,1.889,19.665
	C44.343,8.332,33.228,0.53,22.899,0.53c-9.872,0-18.704,6.235-21.822,15.807c-4.519,16.367,5.85,28.718,18.673,34.009
	c11.375,4.684,20.42,8.313,22.648,13.123c5.069-1.92,7.101-13.855,3.205-17.658c5.826,1.252,17.697,0,23.932-11.754
	C78.941,16.337,62.614-3.697,43.43,1.475z M31.141,37.003c0,0-13.359-4.944-13.359-12.336c0-5.416,6.234-6.369,10.21-2.889
	C31.535,24.879,32.448,29.563,31.141,37.003z"/>
<g>
	<path fill-rule="evenodd" clip-rule="evenodd" fill="#FFFFFF" d="M109.69,40.393v-1.98l-1.888-0.305
		c-0.458-0.062-0.671-0.137-0.914-0.593l-1.874-4.753c-0.579-1.492-0.884-2.239-1.858-2.697c2.452-0.974,4.188-2.741,4.188-6
		c0-3.107-1.477-6.139-7.068-6.139h-9.901v1.98l1.95,0.214c0.426,0.045,0.488,0.167,0.488,0.625v16.83
		c0,0.473-0.062,0.566-0.488,0.626l-1.95,0.213v1.98h8.516v-1.98l-1.996-0.244c-0.456-0.061-0.487-0.122-0.487-0.623v-6.582h2.635
		c1.051,0,1.554,0.366,1.919,1.327l2.331,5.878l-2.056,0.275v1.949H109.69z M96.409,28.313v-7.691h2.071
		c3.381,0,5.118,0.747,5.118,3.608c0,3.383-2.254,4.083-4.904,4.083H96.409z"/>
	<path fill-rule="evenodd" clip-rule="evenodd" fill="#FFFFFF" d="M122.593,36.828c-1.858,0.776-3.031,1.081-4.555,1.081
		c-3,0-4.112-1.705-4.28-4.583h10.008c0.061-0.596,0.092-1.402,0.092-1.814c0-5.393-2.651-7.478-6.565-7.478
		c-4.052,0-7.312,2.649-7.312,8.256c0,4.782,1.889,8.483,7.663,8.483c2.254,0,4.234-0.593,5.94-1.463L122.593,36.828z
		 M113.804,30.75c0.152-2.833,1.66-4.005,3.427-4.005c1.676,0,3.077,0.959,3.077,4.005H113.804z"/>
	<path fill="#FFFFFF" d="M136.165,40.393v-1.98l-3.688-0.305c-0.473-0.031-0.503-0.137-0.503-0.624V26.896h5.241v-2.543h-4.997
		c-0.244,0-0.244-0.091-0.244-0.318V21.96c0-1.751,0.351-2.862,2.332-2.862c1.264,0,1.858,0.318,1.858,1.934l3.306-0.41
		c-0.017-3.352-2.347-4.008-5.012-4.008c-4.022,0-6.048,1.767-6.048,5.653v2.085h-2.407v2.543h2.163
		c0.244,0,0.244,0.122,0.244,0.307v10.371c0,0.473-0.061,0.595-0.486,0.626l-1.891,0.183v2.011H136.165z"/>
	<path fill="#FFFFFF" d="M148,40.393v-1.98l-2.909-0.244c-0.473-0.028-0.533-0.122-0.533-0.623v-8.912
		c0.625-0.595,1.949-1.615,3.123-1.615c0.289,0,0.35,0.063,0.381,0.336l0.364,1.934l2.787,0.122v-5.058
		c-0.546-0.196-1.703-0.318-2.406-0.318c-2.086,0-3.534,1.279-4.555,2.618l-0.105-0.044l-0.337-2.255h-4.613l-0.306,1.981
		l1.707,0.593c0.304,0.122,0.395,0.305,0.395,0.64v10.006c0,0.473-0.061,0.566-0.486,0.626l-1.493,0.183v2.011H148z"/>
	<path fill-rule="evenodd" clip-rule="evenodd" fill="#FFFFFF" d="M158.617,19.814c0-1.462-0.867-2.27-2.315-2.27
		c-1.493,0-2.331,0.808-2.331,2.27c0,1.492,0.838,2.331,2.331,2.331C157.75,22.145,158.617,21.306,158.617,19.814z M160.795,40.393
		v-1.98l-1.844-0.213c-0.456-0.06-0.488-0.123-0.488-0.626V24.353h-5.359l-0.304,1.981l1.705,0.593
		c0.304,0.091,0.395,0.305,0.395,0.656v9.99c0,0.458-0.059,0.566-0.488,0.626l-1.856,0.244v1.949H160.795z"/>
	<path fill-rule="evenodd" clip-rule="evenodd" fill="#FFFFFF" d="M177.703,40.393v-1.98l-1.523-0.213
		c-0.459-0.06-0.487-0.123-0.487-0.626v-7.98c0-4.279-1.675-5.559-6.168-5.559c-2.637,0-6.263,0.502-6.263,4.478l3.354,0.303
		c0-2.131,1.143-2.269,2.848-2.269c2.392,0,2.728,1.067,2.728,3.016v1.585l-3.93,0.303c-3.778,0.321-5.699,1.814-5.699,4.907
		c0,1.75,0.52,4.416,4.416,4.416c2.426,0,4.101-0.931,5.454-2.238l0.091,0.028l0.322,1.829H177.703z M172.19,36.144
		c-0.931,0.929-2.485,1.859-3.992,1.859c-1.279,0-1.982-0.488-1.982-1.981s0.703-2.149,3.031-2.361l2.943-0.244V36.144z"/>
	<path fill="#FFFFFF" d="M197.062,40.393v-1.98l-1.705-0.213c-0.458-0.06-0.487-0.123-0.487-0.626v-7.858
		c0-3.566-1.279-5.681-4.613-5.681c-2.241,0-4.068,0.867-5.806,2.056l-0.122-0.03l-0.243-1.708H179.5l-0.318,1.981l1.705,0.593
		c0.322,0.091,0.41,0.305,0.41,0.64v10.006c0,0.473-0.06,0.566-0.503,0.626l-1.476,0.183v2.011h7.676v-1.98l-1.646-0.213
		c-0.455-0.06-0.487-0.123-0.487-0.626v-8.94c1.021-0.747,2.665-1.615,4.237-1.615c1.992,0,2.206,1.554,2.206,3.413v7.206
		c0,0.366-0.06,0.563-0.503,0.625l-1.538,0.182v1.949H197.062z"/>
	<path fill-rule="evenodd" clip-rule="evenodd" fill="#FFFFFF" d="M214.505,26.607v-2.255h-5.639
		c-0.653-0.196-1.796-0.318-2.907-0.318c-4.433,0-6.853,2.512-6.853,5.955c0,2.179,0.986,3.793,2.42,4.57
		c-0.563,0.593-1.203,1.371-1.707,1.935c-0.517,0.579-0.775,1.111-0.775,1.769c0,0.745,0.409,1.491,1.43,1.919
		c-1.049,0.99-1.889,1.889-1.889,3.38c0,2.362,1.952,3.825,7.405,3.825c5.391,0,8.24-1.921,8.24-5.211
		c0-3.763-2.637-4.035-8.148-4.326l-3.808-0.184l1.416-2.359c0.593,0.182,1.583,0.275,2.604,0.275c3.626,0,6.474-1.982,6.474-5.592
		c0-1.417-0.548-2.375-1.174-3.184L214.505,26.607z M209.614,29.868c0,1.934-1.433,3.167-3.565,3.167
		c-2.544,0-3.502-1.326-3.502-3.093c0-2.329,1.524-3.396,3.594-3.396C208.305,26.546,209.614,27.735,209.614,29.868z
		 M207.695,41.107c1.797,0.122,2.972,0.2,2.972,1.555c0,1.994-3.002,2.238-4.585,2.238c-2.699,0-4.343-0.472-4.343-1.888
		c0-0.807,0.625-1.583,1.189-2.178L207.695,41.107z"/>
	<path fill-rule="evenodd" clip-rule="evenodd" fill="#FFFFFF" d="M223.338,40.773c5.453,0,7.859-3.41,7.859-8.637
		c0-4.723-2.101-8.103-7.554-8.103s-8.026,3.35-8.026,8.515C215.617,37.284,217.673,40.773,223.338,40.773z M223.43,38.14
		c-2.666,0-4.097-1.815-4.097-5.79c0-3.96,1.583-5.605,4.219-5.605s3.96,1.645,3.96,5.575
		C227.512,36.386,226.065,38.14,223.43,38.14z"/>
</g>
</svg>
