<?xml version="1.0" encoding="UTF-8"?>
<svg width="208px" height="40px" viewBox="0 0 208 40" version="1.1" xmlns="http://www.w3.org/2000/svg" xmlns:xlink="http://www.w3.org/1999/xlink">
    <!-- Generator: Sketch 58 (84663) - https://sketch.com -->
    <title>LogoYETU-Black Copy 4</title>
    <desc>Created with Sketch.</desc>
    <g id="Design" stroke="none" stroke-width="1" fill="none" fill-rule="evenodd">
        <g id="Desktop-Particulares-HOMEPAGE" transform="translate(-135.000000, -80.000000)">
            <g id="Group-7" transform="translate(0.000000, 50.000000)">
                <g id="LogoYETU-Black-Copy-4" transform="translate(135.000000, 30.000000)">
                    <path d="M58.0167191,38.2016792 C61.995906,38.2016792 63.6737606,36.567753 63.6737606,33.846364 C63.6737606,30.8307955 61.26356,29.372193 57.271565,29.372193 L51.5262394,29.372193 L51.5262394,38.2016792 L58.0167191,38.2016792 Z M57.0927097,27.6048385 C60.8088741,27.6048385 62.8984161,26.2405009 62.8984161,23.4567241 C62.8984161,20.6961719 61.2169021,19.3983208 57.1819086,19.3983208 L51.5262394,19.3983208 L51.5262394,27.6048385 L57.0927097,27.6048385 Z M61.1084911,28.456411 C63.5918806,29.1349367 65.6,30.9004696 65.6,33.846364 C65.6,37.252654 63.3334324,40 57.9275202,40 L49.6,40 L49.6,17.6 L57.2116416,17.6 C62.5086855,17.6 64.8246555,19.9452398 64.8246555,23.3679237 C64.8246555,26.0902234 63.1628109,27.7642237 61.1084911,28.456411 L61.1084911,28.456411 Z" id="Fill-37" fill="#010202"></path>
                    <path d="M79.2518529,34.2714771 L79.2518529,29.433666 C72.0350867,30.7202105 70.6111867,32.4809299 70.6111867,34.3899112 C70.6111867,35.9326242 71.6136017,36.7827174 73.4114643,36.7827174 C75.5766273,36.7827174 77.5583622,35.8641956 79.2518529,34.2714771 M68.8,34.4745696 C68.8,31.4518697 71.4132963,29.2946156 79.2518529,27.9795592 L79.2518529,27.2413203 C79.2518529,25.0634499 78.1250798,24.0172826 76.1619986,24.0172826 C73.7130326,24.0172826 72.0812769,24.9564207 70.3962248,26.4513214 L70.2425538,26.5881785 L69.1450937,25.4284022 L69.3014296,25.2862814 C71.2081055,23.5470556 73.1969466,22.4 76.1904233,22.4 C79.4703678,22.4 81.0630396,24.273451 81.0630396,27.1544687 L81.0630396,34.2175239 C81.0630396,36.0484264 81.1802915,37.1261761 81.4809715,37.8560807 L81.6,38.1429543 L79.6542401,38.1429543 L79.60805,37.9982016 C79.4357252,37.459546 79.3029285,36.8397412 79.2629563,36.1392258 C77.472644,37.5674526 75.5060097,38.4 73.2951006,38.4 C70.4202082,38.4 68.8,36.8972036 68.8,34.4745696" id="Fill-38" fill="#010202"></path>
                    <path d="M84.8,22.7196344 L86.6868415,22.7196344 L86.6868415,24.9762447 C88.3715875,23.5216182 90.348609,22.4 92.586921,22.4 C96.0003468,22.4 97.6,24.2442506 97.6,27.1165027 L97.6,38.4 L95.7140834,38.4 L95.7140834,27.2908083 C95.7140834,25.0720905 94.7456897,24.044089 92.4666811,24.044089 C90.3758942,24.044089 88.6060554,25.07744 86.6868415,26.8294113 L86.6868415,38.4 L84.8,38.4 L84.8,22.7196344 Z" id="Fill-39" fill="#010202"></path>
                    <path d="M100.8,30.4148601 C100.8,25.073514 104.050872,22.4 107.61679,22.4 C110.817236,22.4 112.504476,24.3353147 113.483085,26.5127622 L113.562516,26.6888986 L111.993083,27.5140734 L111.900265,27.3051573 C110.989039,25.2085664 109.795789,24.0118881 107.559225,24.0118881 C105.331586,24.0118881 102.621559,25.6159091 102.621559,30.386014 C102.621559,34.504458 104.866155,36.7881119 107.498982,36.7881119 C109.711449,36.7881119 110.876586,35.7015734 112.023428,33.455507 L112.117585,33.2693182 L113.6,33.9948427 L113.509413,34.1801573 C112.206387,36.8178322 110.429452,38.4 107.412411,38.4 C103.773309,38.4 100.8,35.2522727 100.8,30.4148601" id="Fill-40" fill="#010202"></path>
                    <path d="M129.309264,30.3857951 C129.309264,26.9582539 127.413893,24.0114951 124,24.0114951 C120.75854,24.0114951 118.689809,26.713492 118.689809,30.3857951 C118.689809,33.8430573 120.556441,36.7880679 124,36.7880679 C127.240533,36.7880679 129.309264,34.1162291 129.309264,30.3857951 M116.8,30.414642 C116.8,25.511536 119.923724,22.4 124,22.4 C128.04522,22.4 131.2,25.5106619 131.2,30.414642 C131.2,35.2600541 128.04522,38.4 124,38.4 C119.954317,38.4 116.8,35.2600541 116.8,30.414642" id="Fill-41" fill="#010202"></path>
                    <polygon id="Fill-42" fill="#010202" points="137.603166 17.6 141.77665 26.6718383 145.88534 17.6 152 17.6 141.367313 40 134.951013 40 138.24716 32.8876095 131.2 17.6"></polygon>
                    <path d="M194.734586,17.6 L194.731464,30.3528274 C194.735924,32.3958213 196.389028,34.0204622 198.400223,34.0204622 C200.403391,34.0204622 202.031077,32.4101392 202.067644,30.4033877 L202.06586,17.6 L208,17.6 L207.996432,30.8074226 C207.764989,35.9238559 203.55575,40 198.398885,40 C193.243804,40 189.018065,35.9229611 188.804459,30.8074226 L188.8,17.6 L194.734586,17.6 Z" id="Fill-43" fill="#010202"></path>
                    <polygon id="Fill-44" fill="#010202" points="176.011674 40 176.005917 23.2010246 170.616561 23.2010246 169.6 17.6 188.8 17.6 187.78104 23.2010246 182.390725 23.2010246 182.388326 40"></polygon>
                    <polygon id="Fill-45" fill="#010202" points="153.6 17.6 168 17.6 167.0038 23.2014799 159.804502 23.2014799 159.804502 26.3366876 167.025314 26.3366876 167.025314 31.3871725 159.804502 31.3871725 159.804502 34.3989754 167.0038 34.3989754 168 40 153.6 40"></polygon>
                    <polygon id="Fill-46" fill="#A79966" points="38.4 20.545049 28.4801636 26.49691 28.4801636 24.7042424 38.4 18.8443846 38.4 17.1581246 28.4801636 23.0170531 28.4801636 21.3498443 38.4 15.4402676 38.4 13.7502904 28.4801636 19.6594024 28.4801636 17.9540914 38.4 12.006877 38.4 10.3141118 19.1933089 21.8284466 17.7944148 20.9878723 38.4 8.57255704 38.4 6.87746852 16.3839227 20.143116 14.8561126 19.2263371 38.4 5.13126713 38.4 3.43943125 13.4451745 18.3787928 12.0462804 17.5400771 38.4 1.69648251 38.4 0.00185864969 19.2124901 11.537568 0 0 0 1.69369453 17.8037824 12.3851122 16.3433298 13.2628595 0 3.43803727 0 5.13126713 14.934622 14.1094745 13.5058408 14.9681706 0 6.87375122 0 8.56744575 12.0953487 15.8166442 10.6362344 16.6943915 0 10.3117885 0 12.0050184 18.4938618 23.1016217 18.4938618 24.7795177 0 13.7484318 0 15.4393383 18.4938618 26.4704242 18.4938618 28.2965476 0 17.1581246 0 18.8532131 18.4938618 29.9907068 18.4938618 31.6634915 0 20.5431904 0 22.2378142 9.91983644 28.2026857 9.91983644 40 11.3477255 40 11.3477255 29.0604526 12.7760606 29.9163608 12.7760606 40 14.2026114 40 14.2026114 30.7773802 15.6309465 31.6360764 15.6309465 40 17.0579434 40 17.0579434 32.4947725 18.4858324 33.3520747 18.4858324 40 19.9141676 40 19.9141676 23.0890758 21.3411644 22.2368849 21.3411644 40 22.7690535 40 22.7690535 21.3772594 24.1969425 20.5213512 24.1969425 40 25.6248316 40 25.6248316 19.6654431 27.0522745 18.8099995 27.0522745 40 28.4801636 40 28.4801636 28.1901399 38.4 22.2387436"></polygon>
                </g>
            </g>
        </g>
    </g>
</svg>