<svg version="1.1" xmlns="http://www.w3.org/2000/svg" xmlns:xlink="http://www.w3.org/1999/xlink" x="0px" y="0px"
	 viewBox="0 0 134.4 60" enable-background="new 0 0 134.4 60" xml:space="preserve">
	<path fill-rule="evenodd" clip-rule="evenodd" fill="#6A3F24" d="M26.9,31.9c0-2.8,2.2-5,5-5c2.8,0,5,2.2,5,5c0,2.8-2.2,5-5,5
		C29.1,36.9,26.9,34.7,26.9,31.9z"/>
	<path fill-rule="evenodd" clip-rule="evenodd" fill="#6A3F24" d="M0,48.5h13.1c0,0-3.5-19.7,18.1-48.5C1.2,15.3,0,48.5,0,48.5z"/>
	<path fill-rule="evenodd" clip-rule="evenodd" fill="#6A3F24" d="M64,48.5H50.9c0,0,3.5-19.7-18.1-48.5C62.8,15.3,64,48.5,64,48.5z
		"/>
	<path fill-rule="evenodd" clip-rule="evenodd" fill="#9C9B9B" d="M75.5,41.5h2.8c1.9,0,3.2-0.3,4-0.8c0.8-0.6,1.2-1.5,1.2-2.8
		c0-1.4-0.4-2.4-1.1-3c-0.7-0.6-2-0.9-4-0.9h-2.9V41.5L75.5,41.5z M68.1,48.4V14.5h8c3.3,0,4.1,0.1,5.4,0.4c1.3,0.2,2.4,0.7,3.4,1.3
		c1.1,0.7,1.9,1.6,2.5,2.8c0.6,1.2,0.9,2.5,0.9,4c0,1.9-0.4,3.5-1.3,4.6c-0.8,1.1-1.2,1.4-2.5,2.6c2.1,0.2,3.7,1,4.9,2.5
		c1.2,1.5,1.8,3.5,1.8,6c0,1.8-0.3,3.4-1,4.8c-0.7,1.4-1.6,2.4-2.8,3.2c-1,0.6-2.2,1.1-3.7,1.3c-1.5,0.3-3.9,0.4-7.2,0.4H68.1
		L68.1,48.4z M75.5,28.1h1.6c1.2,0,1.8-0.2,2.6-0.7c0.7-0.5,1.1-1.4,1.1-2.6c0-1.3-0.3-2.2-1-2.7c-0.7-0.5-1.6-0.8-2.5-0.8h-1.7
		V28.1z"/>
	<path fill-rule="evenodd" clip-rule="evenodd" fill="#9C9B9B" d="M120.4,16v8.8c-1.2-1.4-2.5-2.1-3.7-2.7c-1.2-0.6-2.5-1-3.9-1
		c-2.6,0-4.7,0.9-6.3,2.6c-1.6,1.8-3,3.9-3.1,7.6c-0.1,3.5,1.5,5.6,3.2,7.3c1.6,1.7,3.7,2.6,6.2,2.6c1.4,0,2.7-0.3,3.9-0.9
		c1.2-0.6,2.5-1.4,3.7-2.8v8.8c-1.4,0.7-2.8,1.2-4.2,1.5c-1.4,0.3-2.8,0.5-4.3,0.5c-1.8,0-3.5-0.2-5-0.7c-1.5-0.4-2.9-1.1-4.2-1.9
		c-2.5-1.6-4.3-3.7-5.6-6.2c-1.3-2.5-1.9-5.3-1.9-8.4c0-2.5,0.4-4.8,1.2-6.8c0.8-2.1,2.1-3.9,3.7-5.6c1.6-1.6,3.3-2.8,5.2-3.6
		c2-0.8,4.1-1.2,6.5-1.2c1.4,0,2.9,0.2,4.3,0.5C117.5,14.8,118.9,15.3,120.4,16z"/>
	<rect x="127.1" y="14.2" fill-rule="evenodd" clip-rule="evenodd" fill="#9C9B9B" width="7.3" height="34.2"/>
	<path fill-rule="evenodd" clip-rule="evenodd" fill="#9C9B9B" d="M0.6,59.3h0.7c0.4,0,0.7,0,0.8,0c0.1,0,0.3-0.1,0.4-0.2
		c0.1-0.1,0.2-0.2,0.3-0.4c0.1-0.2,0.1-0.4,0.1-0.5c0-0.2,0-0.4-0.1-0.6c-0.1-0.2-0.2-0.3-0.3-0.4C2.3,57.1,2.2,57,2.1,57
		c-0.1,0-0.4,0-0.6,0H1.3H0.6V59.3L0.6,59.3z M0.6,56.5h0.7c0.5,0,0.8-0.1,1-0.2c0.2-0.2,0.3-0.4,0.3-0.8c0-0.4-0.1-0.7-0.3-0.9
		c-0.2-0.2-0.5-0.2-1-0.2H0.6V56.5L0.6,56.5z M0.1,59.8v-5.9h1c0.4,0,0.8,0,1,0.1c0.2,0,0.4,0.1,0.5,0.2c0.2,0.1,0.3,0.3,0.4,0.5
		c0.1,0.2,0.2,0.4,0.2,0.7c0,0.3-0.1,0.6-0.2,0.8c-0.2,0.2-0.4,0.4-0.7,0.4c0.4,0.1,0.7,0.2,0.9,0.5c0.2,0.2,0.3,0.6,0.3,0.9
		c0,0.3,0,0.5-0.1,0.7C3.3,59,3.2,59.2,3,59.3c-0.2,0.2-0.4,0.3-0.6,0.3c-0.2,0.1-0.7,0.1-1.2,0.1H0.1z"/>
	<path fill-rule="evenodd" clip-rule="evenodd" fill="#9C9B9B" d="M5.4,57.3h2l-1-2.6L5.4,57.3L5.4,57.3z M3.9,59.8l2.6-6.1l2.5,6.1
		H8.3l-0.8-2H5.2l-0.8,2H3.9z"/>
	<polygon fill-rule="evenodd" clip-rule="evenodd" fill="#9C9B9B" points="9.6,59.8 9.6,53.6 13.7,58.6 13.7,53.9 14.2,53.9
		14.2,59.9 10.1,55 10.1,59.8 	"/>
	<path fill-rule="evenodd" clip-rule="evenodd" fill="#9C9B9B" d="M20.4,55c-0.3-0.3-0.6-0.4-0.9-0.6c-0.3-0.1-0.6-0.2-1-0.2
		c-0.8,0-1.4,0.2-1.9,0.7c-0.5,0.5-0.7,1.1-0.7,1.9c0,0.4,0.1,0.7,0.2,1c0.1,0.3,0.3,0.6,0.5,0.8c0.2,0.2,0.5,0.4,0.8,0.5
		c0.3,0.1,0.6,0.2,1,0.2c0.3,0,0.7-0.1,1-0.2c0.3-0.1,0.6-0.3,0.9-0.5v0.6c-0.3,0.2-0.6,0.3-0.9,0.4c-0.3,0.1-0.6,0.1-1,0.1
		c-0.4,0-0.8-0.1-1.2-0.2c-0.4-0.2-0.7-0.4-1-0.6c-0.3-0.3-0.5-0.6-0.7-1c-0.1-0.4-0.2-0.8-0.2-1.2c0-0.4,0.1-0.8,0.2-1.2
		c0.2-0.4,0.4-0.7,0.7-1c0.3-0.3,0.6-0.5,1-0.6c0.4-0.2,0.8-0.2,1.2-0.2c0.4,0,0.7,0.1,1,0.2c0.3,0.1,0.6,0.3,0.9,0.5L20.4,55z"/>
	<path fill-rule="evenodd" clip-rule="evenodd" fill="#9C9B9B" d="M24.5,59.4c0.3,0,0.7-0.1,1-0.2c0.3-0.1,0.6-0.3,0.8-0.6
		c0.2-0.2,0.4-0.5,0.6-0.8c0.1-0.3,0.2-0.7,0.2-1c0-0.4-0.1-0.7-0.2-1c-0.1-0.3-0.3-0.6-0.6-0.8c-0.2-0.2-0.5-0.4-0.8-0.6
		c-0.3-0.1-0.6-0.2-1-0.2c-0.3,0-0.7,0.1-1,0.2c-0.3,0.1-0.6,0.3-0.8,0.6c-0.2,0.3-0.4,0.5-0.6,0.8c-0.1,0.3-0.2,0.6-0.2,1
		c0,0.4,0.1,0.7,0.2,1c0.1,0.3,0.3,0.6,0.6,0.8c0.2,0.2,0.5,0.4,0.8,0.6C23.8,59.4,24.1,59.4,24.5,59.4L24.5,59.4z M27.6,56.8
		c0,0.4-0.1,0.8-0.2,1.2c-0.2,0.4-0.4,0.7-0.7,1c-0.3,0.3-0.6,0.5-1,0.7c-0.4,0.2-0.8,0.2-1.2,0.2c-0.4,0-0.8-0.1-1.2-0.2
		c-0.4-0.2-0.7-0.4-1-0.7c-0.3-0.3-0.5-0.6-0.7-1c-0.2-0.4-0.2-0.8-0.2-1.2c0-0.4,0.1-0.8,0.2-1.2c0.2-0.4,0.4-0.7,0.7-1
		c0.3-0.3,0.6-0.5,1-0.7c0.4-0.2,0.8-0.2,1.2-0.2c0.4,0,0.8,0.1,1.2,0.2c0.4,0.2,0.7,0.4,1,0.7c0.3,0.3,0.5,0.6,0.7,1
		C27.5,56,27.6,56.4,27.6,56.8z"/>
	<path fill-rule="evenodd" clip-rule="evenodd" fill="#9C9B9B" d="M31.7,59.3h0.8c0.6,0,1,0,1.3-0.1c0.3-0.1,0.5-0.2,0.6-0.3
		c0.2-0.2,0.4-0.5,0.6-0.9c0.1-0.3,0.2-0.7,0.2-1.2c0-0.5-0.1-0.8-0.2-1.2c-0.1-0.3-0.3-0.6-0.6-0.8c-0.2-0.2-0.4-0.3-0.7-0.4
		c-0.3-0.1-0.7-0.1-1.4-0.1h-0.1h-0.5V59.3L31.7,59.3z M31.2,59.8v-5.9h0.9c0.8,0,1.4,0,1.7,0.1c0.3,0.1,0.6,0.2,0.9,0.4
		c0.3,0.3,0.6,0.6,0.7,1c0.2,0.4,0.3,0.9,0.3,1.4c0,0.5-0.1,1-0.3,1.4c-0.2,0.4-0.4,0.7-0.7,1c-0.3,0.2-0.5,0.3-0.9,0.4
		c-0.3,0.1-0.9,0.1-1.6,0.1h-0.2H31.2z"/>
	<polygon fill-rule="evenodd" clip-rule="evenodd" fill="#9C9B9B" points="36.9,59.8 36.9,53.9 39.8,53.9 39.8,54.4 37.4,54.4
		37.4,56.2 39.8,56.2 39.8,56.7 37.4,56.7 37.4,59.3 39.8,59.3 39.8,59.8 	"/>
	<path fill-rule="evenodd" clip-rule="evenodd" fill="#9C9B9B" d="M48.2,55c-0.3-0.3-0.6-0.4-0.9-0.6c-0.3-0.1-0.6-0.2-1-0.2
		c-0.8,0-1.4,0.2-1.9,0.7c-0.5,0.5-0.7,1.1-0.7,1.9c0,0.4,0.1,0.7,0.2,1c0.1,0.3,0.3,0.6,0.5,0.8c0.2,0.2,0.5,0.4,0.8,0.5
		c0.3,0.1,0.6,0.2,1,0.2c0.3,0,0.7-0.1,1-0.2c0.3-0.1,0.6-0.3,0.9-0.5v0.6c-0.3,0.2-0.6,0.3-0.9,0.4c-0.3,0.1-0.6,0.1-1,0.1
		c-0.4,0-0.8-0.1-1.2-0.2c-0.4-0.2-0.7-0.4-1-0.6c-0.3-0.3-0.5-0.6-0.7-1c-0.1-0.4-0.2-0.8-0.2-1.2c0-0.4,0.1-0.8,0.2-1.2
		c0.2-0.4,0.4-0.7,0.7-1c0.3-0.3,0.6-0.5,1-0.6c0.4-0.2,0.8-0.2,1.2-0.2c0.4,0,0.7,0.1,1,0.2c0.3,0.1,0.6,0.3,0.9,0.5L48.2,55z"/>
	<path fill-rule="evenodd" clip-rule="evenodd" fill="#9C9B9B" d="M52.2,59.4c0.3,0,0.7-0.1,1-0.2c0.3-0.1,0.6-0.3,0.8-0.6
		c0.2-0.2,0.4-0.5,0.6-0.8c0.1-0.3,0.2-0.7,0.2-1c0-0.4-0.1-0.7-0.2-1c-0.1-0.3-0.3-0.6-0.6-0.8c-0.2-0.2-0.5-0.4-0.8-0.6
		c-0.3-0.1-0.6-0.2-1-0.2c-0.3,0-0.7,0.1-1,0.2c-0.3,0.1-0.6,0.3-0.8,0.6c-0.2,0.3-0.4,0.5-0.6,0.8c-0.1,0.3-0.2,0.6-0.2,1
		c0,0.4,0.1,0.7,0.2,1c0.1,0.3,0.3,0.6,0.6,0.8c0.2,0.2,0.5,0.4,0.8,0.6C51.5,59.4,51.9,59.4,52.2,59.4L52.2,59.4z M55.4,56.8
		c0,0.4-0.1,0.8-0.2,1.2c-0.2,0.4-0.4,0.7-0.7,1c-0.3,0.3-0.6,0.5-1,0.7c-0.4,0.2-0.8,0.2-1.2,0.2c-0.4,0-0.8-0.1-1.2-0.2
		c-0.4-0.2-0.7-0.4-1-0.7c-0.3-0.3-0.5-0.6-0.7-1c-0.2-0.4-0.2-0.8-0.2-1.2c0-0.4,0.1-0.8,0.2-1.2c0.2-0.4,0.4-0.7,0.7-1
		c0.3-0.3,0.6-0.5,1-0.7c0.4-0.2,0.8-0.2,1.2-0.2c0.4,0,0.8,0.1,1.2,0.2c0.4,0.2,0.7,0.4,1,0.7c0.3,0.3,0.5,0.6,0.7,1
		C55.3,56,55.4,56.4,55.4,56.8z"/>
	<polygon fill-rule="evenodd" clip-rule="evenodd" fill="#9C9B9B" points="59.2,60 57.2,55.3 56.7,59.8 56.2,59.8 57,53.6
		59.2,58.9 61.6,53.6 62.3,59.8 61.8,59.8 61.3,55.3 	"/>
	<path fill-rule="evenodd" clip-rule="evenodd" fill="#9C9B9B" d="M64.3,53.3l0.9-1.4h0.7l-1.1,1.4H64.3L64.3,53.3z M63.4,59.8v-5.9
		h2.9v0.5H64v1.8h2.4v0.5H64v2.5h2.4v0.5H63.4z"/>
	<path fill-rule="evenodd" clip-rule="evenodd" fill="#9C9B9B" d="M68.2,54.4v2.2h0.5c0.5,0,0.8-0.1,1-0.2c0.2-0.2,0.3-0.4,0.3-0.8
		c0-0.4-0.1-0.7-0.3-0.9c-0.2-0.2-0.5-0.3-1-0.3H68.2L68.2,54.4z M71.2,59.8h-0.7L68.5,57h-0.3v2.8h-0.5v-5.9h1.1
		c0.6,0,1.1,0.1,1.4,0.4c0.3,0.3,0.5,0.7,0.5,1.2c0,0.5-0.1,0.8-0.4,1.1C70,56.8,69.6,57,69.1,57L71.2,59.8z"/>
	<path fill-rule="evenodd" clip-rule="evenodd" fill="#9C9B9B" d="M76.7,55c-0.3-0.3-0.6-0.4-0.9-0.6c-0.3-0.1-0.6-0.2-1-0.2
		c-0.8,0-1.4,0.2-1.9,0.7c-0.5,0.5-0.7,1.1-0.7,1.9c0,0.4,0.1,0.7,0.2,1c0.1,0.3,0.3,0.6,0.5,0.8c0.2,0.2,0.5,0.4,0.8,0.5
		c0.3,0.1,0.6,0.2,1,0.2c0.3,0,0.7-0.1,1-0.2c0.3-0.1,0.6-0.3,0.9-0.5v0.6c-0.3,0.2-0.6,0.3-0.9,0.4c-0.3,0.1-0.6,0.1-1,0.1
		c-0.4,0-0.8-0.1-1.2-0.2c-0.4-0.2-0.7-0.4-1-0.6c-0.3-0.3-0.5-0.6-0.7-1c-0.1-0.4-0.2-0.8-0.2-1.2c0-0.4,0.1-0.8,0.2-1.2
		c0.2-0.4,0.4-0.7,0.7-1c0.3-0.3,0.6-0.5,1-0.6c0.4-0.2,0.8-0.2,1.2-0.2c0.4,0,0.7,0.1,1,0.2c0.3,0.1,0.6,0.3,0.9,0.5L76.7,55z"/>
	<rect x="77.9" y="53.9" fill-rule="evenodd" clip-rule="evenodd" fill="#9C9B9B" width="0.5" height="5.9"/>
	<path fill-rule="evenodd" clip-rule="evenodd" fill="#9C9B9B" d="M82.8,59.4c0.3,0,0.7-0.1,1-0.2c0.3-0.1,0.6-0.3,0.8-0.6
		c0.2-0.2,0.4-0.5,0.6-0.8c0.1-0.3,0.2-0.7,0.2-1c0-0.4-0.1-0.7-0.2-1c-0.1-0.3-0.3-0.6-0.6-0.8c-0.2-0.2-0.5-0.4-0.8-0.6
		c-0.3-0.1-0.6-0.2-1-0.2c-0.3,0-0.7,0.1-1,0.2c-0.3,0.1-0.6,0.3-0.8,0.6c-0.2,0.3-0.4,0.5-0.6,0.8c-0.1,0.3-0.2,0.6-0.2,1
		c0,0.4,0.1,0.7,0.2,1c0.1,0.3,0.3,0.6,0.6,0.8c0.2,0.2,0.5,0.4,0.8,0.6C82.1,59.4,82.4,59.4,82.8,59.4L82.8,59.4z M85.9,56.8
		c0,0.4-0.1,0.8-0.2,1.2c-0.2,0.4-0.4,0.7-0.7,1c-0.3,0.3-0.6,0.5-1,0.7c-0.4,0.2-0.8,0.2-1.2,0.2c-0.4,0-0.8-0.1-1.2-0.2
		c-0.4-0.2-0.7-0.4-1-0.7c-0.3-0.3-0.5-0.6-0.7-1c-0.2-0.4-0.2-0.8-0.2-1.2c0-0.4,0.1-0.8,0.2-1.2c0.2-0.4,0.4-0.7,0.7-1
		c0.3-0.3,0.6-0.5,1-0.7c0.4-0.2,0.8-0.2,1.2-0.2c0.4,0,0.8,0.1,1.2,0.2c0.4,0.2,0.7,0.4,1,0.7c0.3,0.3,0.5,0.6,0.7,1
		C85.8,56,85.9,56.4,85.9,56.8z"/>
	<polygon fill-rule="evenodd" clip-rule="evenodd" fill="#9C9B9B" points="89.5,59.8 89.5,53.9 92.4,53.9 92.4,54.4 90,54.4
		90,56.2 92.4,56.2 92.4,56.7 90,56.7 90,59.3 92.4,59.3 92.4,59.8 	"/>
	<rect x="96" y="53.9" fill-rule="evenodd" clip-rule="evenodd" fill="#9C9B9B" width="0.5" height="5.9"/>
	<polygon fill-rule="evenodd" clip-rule="evenodd" fill="#9C9B9B" points="98.1,59.8 98.1,53.6 102.2,58.6 102.2,53.9 102.7,53.9
		102.7,59.9 98.6,55 98.6,59.8 	"/>
	<path fill-rule="evenodd" clip-rule="evenodd" fill="#9C9B9B" d="M104.7,59.3h0.8c0.6,0,1,0,1.3-0.1c0.3-0.1,0.5-0.2,0.6-0.3
		c0.2-0.2,0.4-0.5,0.6-0.9c0.1-0.3,0.2-0.7,0.2-1.2c0-0.5-0.1-0.8-0.2-1.2c-0.1-0.3-0.3-0.6-0.6-0.8c-0.2-0.2-0.4-0.3-0.7-0.4
		c-0.3-0.1-0.7-0.1-1.4-0.1h-0.1h-0.5V59.3L104.7,59.3z M104.2,59.8v-5.9h0.9c0.8,0,1.4,0,1.7,0.1c0.3,0.1,0.6,0.2,0.9,0.4
		c0.3,0.3,0.6,0.6,0.7,1c0.2,0.4,0.3,0.9,0.3,1.4c0,0.5-0.1,1-0.3,1.4c-0.2,0.4-0.4,0.7-0.7,1c-0.3,0.2-0.5,0.3-0.9,0.4
		c-0.3,0.1-0.9,0.1-1.6,0.1h-0.2H104.2z"/>
	<path fill-rule="evenodd" clip-rule="evenodd" fill="#9C9B9B" d="M111.5,53.3l0.9-1.4h0.7l-1.1,1.4H111.5L111.5,53.3z M109.9,53.9
		h0.5v3.8c0,0.6,0.1,1,0.4,1.3c0.3,0.3,0.7,0.4,1.2,0.4c0.5,0,0.9-0.1,1.2-0.4c0.3-0.3,0.4-0.7,0.4-1.3v-3.8h0.5v3.7
		c0,0.8-0.2,1.4-0.5,1.8c-0.4,0.4-0.9,0.6-1.6,0.6c-0.7,0-1.3-0.2-1.6-0.6c-0.4-0.4-0.5-1-0.5-1.8V53.9z"/>
	<path fill-rule="evenodd" clip-rule="evenodd" fill="#9C9B9B" d="M115.2,58.8l0.5-0.2c0.1,0.3,0.2,0.5,0.4,0.7
		c0.2,0.2,0.5,0.2,0.8,0.2c0.4,0,0.7-0.1,0.9-0.3c0.2-0.2,0.3-0.5,0.3-0.9c0-0.3-0.1-0.5-0.2-0.7c-0.1-0.2-0.4-0.4-0.9-0.7
		c-0.6-0.3-1-0.6-1.2-0.8c-0.2-0.2-0.3-0.5-0.3-0.9c0-0.4,0.1-0.8,0.4-1c0.3-0.3,0.6-0.4,1.1-0.4c0.3,0,0.6,0.1,0.8,0.2
		c0.2,0.1,0.4,0.3,0.5,0.6l-0.4,0.2c-0.1-0.2-0.2-0.3-0.4-0.4c-0.2-0.1-0.3-0.1-0.6-0.1c-0.3,0-0.5,0.1-0.7,0.3
		c-0.2,0.2-0.3,0.4-0.3,0.7c0,0.4,0.3,0.8,1,1.2c0.1,0.1,0.2,0.1,0.3,0.1c0.5,0.3,0.8,0.5,1,0.8c0.2,0.2,0.3,0.6,0.3,1
		c0,0.5-0.2,0.9-0.5,1.3c-0.3,0.3-0.7,0.5-1.3,0.5c-0.4,0-0.7-0.1-1-0.3C115.5,59.4,115.3,59.2,115.2,58.8z"/>
	<polygon fill-rule="evenodd" clip-rule="evenodd" fill="#9C9B9B" points="120.7,59.8 120.7,54.4 119.1,54.4 119.1,53.9 122.9,53.9
		122.9,54.4 121.3,54.4 121.3,59.8 	"/>
	<path fill-rule="evenodd" clip-rule="evenodd" fill="#9C9B9B" d="M124.3,54.4v2.2h0.5c0.5,0,0.8-0.1,1-0.2c0.2-0.2,0.3-0.4,0.3-0.8
		c0-0.4-0.1-0.7-0.3-0.9c-0.2-0.2-0.5-0.3-1-0.3H124.3L124.3,54.4z M127.4,59.8h-0.7l-2.1-2.8h-0.3v2.8h-0.5v-5.9h1.1
		c0.6,0,1.1,0.1,1.4,0.4c0.3,0.3,0.5,0.7,0.5,1.2c0,0.5-0.1,0.8-0.4,1.1c-0.3,0.3-0.6,0.4-1.1,0.4L127.4,59.8z"/>
	<rect x="128.1" y="53.9" fill-rule="evenodd" clip-rule="evenodd" fill="#9C9B9B" width="0.5" height="5.9"/>
	<path fill-rule="evenodd" clip-rule="evenodd" fill="#9C9B9B" d="M130.8,57.3h2l-1-2.6L130.8,57.3L130.8,57.3z M129.3,59.8l2.6-6.1
		l2.5,6.1h-0.6l-0.8-2h-2.4l-0.8,2H129.3z"/>
</svg>
