<svg xmlns="http://www.w3.org/2000/svg" width="137.99" height="73.494" viewBox="0 0 137.99 73.494"><defs><style>.a{fill:#cf0f67;}</style></defs><g transform="translate(-75.515 -311.607)"><path class="a" d="M551.386,312.758c3.383-1.734,6.8-.934,7.62,1.787s-1.275,6.323-4.666,8.058-6.8.923-7.62-1.787,1.266-6.322,4.666-8.047" transform="translate(-394.5 -0.197)"/><path class="a" d="M640.595,312.758c3.391-1.734,6.8-.934,7.618,1.787s-1.264,6.323-4.656,8.058-6.806.923-7.626-1.787,1.267-6.322,4.664-8.047" transform="translate(-469.217 -0.197)"/><path class="a" d="M781,404.09h0Z" transform="translate(-590.867 -77.458)"/><path class="a" d="M96.8,443.115c-22.3,1.123-23.629-5.514-19.351-11.655,1.846-2.645,8.812-8.286,13.576-11.836,7.2-5.361,14.135-9.823,9.826-11.758-3.412-1.543-12.772.82-17.048,2.011-3.045.846-5.036-1.844-2.174-4.062,8.643-6.7,26.419-7.03,34.768-4.292a7.6,7.6,0,0,1,3.816,2.668c3.49,5.217-5.963,12.733-12.172,18.521a50.905,50.905,0,0,0-6.211,7.116,3.876,3.876,0,0,0-.453,3.348c.635,1.451,1.672,1.964,3.4,2.356,3.519.794,6.986-.375,10.4-1.149,3.116-.713,4.684,1.959,1.9,3.56-5.74,3.314-11.9,4.742-20.276,5.166" transform="translate(0 -73.959)"/><path class="a" d="M659.492,331.988a.112.112,0,0,0-.122-.11h-.7a.162.162,0,0,0-.135.11l-.955,3.992c-.019.078-.044.1-.109.1s-.083-.024-.107-.1l-.962-3.992a.133.133,0,0,0-.123-.11h-.705a.114.114,0,0,0-.125.11l1.1,4.19a.842.842,0,0,0,.92.681.856.856,0,0,0,.926-.681l1.1-4.154Zm-4.538.543V332a.124.124,0,0,0-.127-.123h-3.266a.124.124,0,0,0-.122.123v.53a.117.117,0,0,0,.122.115h1.171v4.029a.14.14,0,0,0,.137.13h.65a.135.135,0,0,0,.138-.13v-4.029h1.168a.117.117,0,0,0,.127-.115" transform="translate(-482.356 -16.977)"/><path class="a" d="M569.591,334.481c0,1.006-.51,1.259-1.175,1.259-.236,0-.418-.018-.552-.018v-3.449c.135,0,.325-.02.552-.02.664,0,1.175.253,1.175,1.256Zm.916,0v-.975a1.869,1.869,0,0,0-2.091-2.036,10.387,10.387,0,0,0-1.31.085.172.172,0,0,0-.162.2v4.474a.18.18,0,0,0,.162.208q.652.071,1.31.076a1.869,1.869,0,0,0,2.091-2.036m-4.5,1.852V331.66a.13.13,0,0,0-.135-.123h-.65a.132.132,0,0,0-.133.123v1.826h-1.9V331.66a.122.122,0,0,0-.119-.123H562.4a.137.137,0,0,0-.145.123v4.674a.145.145,0,0,0,.145.13h.669a.13.13,0,0,0,.119-.13V334.3h1.888v2.032a.14.14,0,0,0,.133.13h.65a.136.136,0,0,0,.135-.13" transform="translate(-407.665 -16.636)"/><path class="a" d="M651.194,356.721c-5.215,2.65-10.453,1.425-11.717-2.749s1.95-9.714,7.163-12.369,10.453-1.433,11.715,2.741-1.95,9.712-7.161,12.377M667.545,330.6a21.445,21.445,0,0,0-14.328-3.933c-.31.023-.64.055-.952.1a2.306,2.306,0,0,1-1.011-.137c-.7-.263-.848-.564-1.092-1.553-.27-1.774-.037-3.18.383-3.456,2.643-1.891,4.141-4.936,3.423-7.311-.812-2.721-4.236-3.519-7.636-1.787s-5.477,5.342-4.664,8.06c.65,2.166,2.944,3.11,5.553,2.538a3.947,3.947,0,0,1,.179,1.8,4.02,4.02,0,0,1-.894,2.57,6.087,6.087,0,0,1-2.53,1.763,30.032,30.032,0,0,0-8.179,6.031c-4.746,4.874-7.374,9.82-9.132,17.209-2.547,10.671-1.553,21.031,3.737,30.255,2.112,3.67,6.417,2.77,5.771-.8a52.485,52.485,0,0,1-1.184-11.6,38.615,38.615,0,0,1,1.331-8.055,1.09,1.09,0,0,1,.65-.712,1.187,1.187,0,0,1,1.069.026c9.095,5.248,21.741,3.192,29.475-5.171,8.221-8.884,9.03-19.334.024-25.832" transform="translate(-460.484)"/><path class="a" d="M373.062,433.509c-3.071,1.569-6.156.84-6.9-1.612s1.137-5.72,4.224-7.282,6.146-.843,6.89,1.61-1.147,5.719-4.211,7.283M371.3,401.683c-8.575.772-14.664,4.765-19.363,11.417-1.787,2.53.954,4.525,3.283,3.18,3.683-2.154,7.066-5.353,12.529-5.719,6.632-.437,10.406,2.762,9.936,7.218-.146,1.405-.907,1.655-2.078,1.462-5.215-.632-23.576-2.551-26.762,10.659a8.174,8.174,0,0,0-.195,2.655c.242,7.3,7.68,11.223,14.947,11.654a35.413,35.413,0,0,0,3.688-.01,33.239,33.239,0,0,0,5.652-.73c.263-.089.518-.153.741-.214a24.675,24.675,0,0,0,5.8-2.414c1.087-.6,2.429-1.3,3.706-.637a3.81,3.81,0,0,1,1.378,1.3v-.01c2.575,3.184,5.849,2.284,5.387-2.437-.478-5.036-.64-5.524,1.09-14.339a26.851,26.851,0,0,0,.629-3.5c1.3-10.815-6.872-20.742-20.36-19.53" transform="translate(-228.745 -75.365)"/></g></svg>